<!-- Generated by IcoMoon.io -->
<svg version="1.1" xmlns="http://www.w3.org/2000/svg" width="1024" height="1024" viewBox="0 0 1024 1024">
<title></title>
<g id="icomoon-ignore">
</g>
<path d="M767.571 68.096c-43.040-4.566-86.296-6.788-129.577-6.656-143.489 0-232.663 91.392-232.663 238.507v99.884h-120.532c-5.659 0-11.086 2.245-15.087 6.246s-6.246 9.428-6.246 15.087v164.267c0 5.656 2.245 11.084 6.246 15.084s9.428 6.249 15.087 6.249h120.532v329.387c0 5.656 2.248 11.084 6.249 15.084s9.426 6.249 15.084 6.249h169.728c5.659 0 11.084-2.248 15.084-6.249s6.249-9.428 6.249-15.084v-329.387h120.149c5.179 0.002 10.184-1.88 14.078-5.296s6.412-8.131 7.085-13.266l21.207-164.267c0.393-3.011 0.141-6.071-0.741-8.977-0.883-2.904-2.377-5.588-4.381-7.87-2.002-2.282-4.469-4.111-7.236-5.361-2.767-1.253-5.769-1.899-8.804-1.897h-141.356v-83.585c0-41.387 8.321-58.665 60.075-58.665h86.999c5.656 0 11.084-2.248 15.084-6.249s6.249-9.428 6.249-15.086v-146.987c0.002-5.179-1.88-10.183-5.296-14.077s-8.131-6.412-13.266-7.086zM743.465 214.869l-65.707 0.043c-92.033 0-102.7 57.857-102.7 101.333v104.96c0 5.652 2.241 11.071 6.234 15.070 3.991 3.998 9.406 6.251 15.058 6.263h138.496l-15.745 121.6h-122.709c-5.659 0-11.084 2.248-15.084 6.249s-6.249 9.426-6.249 15.084v329.301h-127.061v-329.301c0-5.659-2.248-11.084-6.249-15.084s-9.426-6.249-15.084-6.249h-120.491v-121.6h120.491c5.659 0 11.084-2.248 15.084-6.249s6.249-9.426 6.249-15.084v-121.259c0-122.624 71.041-195.84 189.996-195.84 43.049 0 81.92 2.347 105.472 4.395v106.368z"></path>
</svg>
