<!-- Generated by IcoMoon.io -->
<svg version="1.1" xmlns="http://www.w3.org/2000/svg" width="1024" height="1024" viewBox="0 0 1024 1024">
<title></title>
<g id="icomoon-ignore">
</g>
<path d="M512 327.999c-36.391 0-71.965 10.791-102.224 31.010s-53.843 48.955-67.769 82.576c-13.926 33.621-17.571 70.619-10.472 106.311 7.1 35.694 24.625 68.479 50.359 94.21 25.732 25.734 58.517 43.259 94.21 50.359 35.691 7.1 72.689 3.455 106.311-10.472s62.357-37.51 82.576-67.769c20.219-30.259 31.010-65.833 31.010-102.224 0-48.801-19.385-95.6-53.894-130.107-34.506-34.509-81.306-53.894-130.107-53.894zM512 647.999c-26.897 0-53.192-7.975-75.557-22.921-22.367-14.943-39.797-36.184-50.091-61.033-10.294-24.852-12.988-52.197-7.739-78.577 5.247-26.383 18.2-50.615 37.22-69.634s43.252-31.973 69.634-37.22c26.38-5.249 53.726-2.555 78.577 7.739 24.849 10.294 46.090 27.724 61.033 50.091 14.946 22.365 22.921 48.66 22.921 75.557-0.105 36.037-14.468 70.568-39.951 96.049-25.481 25.483-60.011 39.846-96.049 39.951zM688.001 120h-352.002c-57.285 0-112.226 22.757-152.734 63.265s-63.265 95.448-63.265 152.734v352.002c0 57.285 22.757 112.226 63.265 152.734 40.508 40.507 95.448 63.264 152.734 63.264h352.002c57.285 0 112.226-22.757 152.734-63.264 40.507-40.509 63.264-95.449 63.264-152.734v-352.002c0-57.285-22.757-112.226-63.264-152.734-40.509-40.508-95.449-63.265-152.734-63.265zM856.001 688.001c0 44.556-17.701 87.286-49.206 118.794-31.508 31.505-74.238 49.206-118.794 49.206h-352.002c-44.556 0-87.286-17.701-118.793-49.206-31.506-31.508-49.206-74.238-49.206-118.794v-352.002c0-44.556 17.7-87.286 49.206-118.793s74.237-49.206 118.793-49.206h352.002c44.556 0 87.286 17.7 118.794 49.206 31.505 31.507 49.206 74.237 49.206 118.793v352.002zM760.001 304.001c0 7.909-2.345 15.643-6.741 22.221s-10.642 11.705-17.952 14.733c-7.309 3.028-15.353 3.82-23.111 2.277-7.76-1.546-14.887-5.354-20.48-10.949-5.595-5.593-9.404-12.72-10.949-20.48-1.543-7.758-0.751-15.801 2.277-23.111s8.155-13.556 14.733-17.952c6.578-4.396 14.312-6.741 22.221-6.741 10.611 0 20.785 4.215 28.284 11.717 7.502 7.5 11.717 17.674 11.717 28.284z"></path>
</svg>
