<!-- Generated by IcoMoon.io -->
<svg version="1.1" xmlns="http://www.w3.org/2000/svg" width="1024" height="1024" viewBox="0 0 1024 1024">
<title></title>
<g id="icomoon-ignore">
</g>
<path d="M884.943 734.635l-5.547-6.912c-43.903-55.508-80.596-84.395-112.084-88.191-27.221-3.713-53.548 15.104-81.537 34.475l-29.908 18.688c-3.584 1.792-7.127 3.243-10.455 4.223-17.493 4.949-61.652 7.851-86.655-15.019-29.099-26.624-74.24-75.349-109.356-117.931-33.536-44.073-70.4-99.028-89.641-133.632-16.257-29.311-2.645-70.315 6.441-85.504 1.792-2.987 4.14-5.929 6.741-8.831l26.368-24.364c0.385-0.383 0.556-0.853 0.897-1.195 0.256-0.256 0.683-0.171 0.98-0.383 23.808-20.097 48.428-40.789 51.797-67.371 3.969-31.232-15.445-73.472-59.433-128.939l-5.376-6.912c-27.221-34.901-68.396-87.68-127.532-78.976-23.252 3.456-44.031 11.392-65.45 24.832-0.213 0.128-0.341 0.384-0.512 0.512s-0.384 0.128-0.555 0.256l-29.824 22.101c-0.299 0.171-0.469 0.555-0.768 0.811-0.213 0.213-0.555 0.256-0.811 0.469-3.456 2.901-6.912 5.888-10.325 8.96-30.251 26.965-95.744 105.259-51.072 250.069 28.843 93.525 88.32 202.667 172.416 316.245l-0.812 0.683 46.38 57.771 0.383-0.297c91.18 107.861 183.979 191.232 269.015 241.705 56.747 33.707 106.325 44.844 147.115 44.844 53.675 0 92.116-19.285 111.401-31.829l12.117-8.107c1.365-0.939 2.348-2.263 3.328-3.457l26.412-19.883c0.297-0.256 0.468-0.597 0.768-0.853 0.127-0.127 0.341-0.085 0.512-0.212 18.773-17.152 31.785-35.116 40.831-56.405 23.425-54.572-18.517-106.837-46.251-141.441zM899.835 862.679c-7.041 16.555-17.323 30.635-32.171 44.288l-39.297 29.567c-35.584 23.125-111.657 51.712-222.164-13.909-85.036-50.473-178.647-135.807-270.763-246.784l-24.917-31.488c-86.742-115.029-147.755-225.195-176.555-318.549-37.419-121.386 9.728-186.495 41.301-214.613 3.2-2.901 6.4-5.589 9.557-8.277l0.128-0.128 28.629-21.205c17.408-11.008 33.536-17.152 52.095-19.968 39.639-5.973 71.895 35.84 95.573 66.219l5.547 7.040c49.152 61.995 53.889 91.477 52.353 103.509-1.707 13.354-22.016 30.464-39.936 45.525l-2.519 2.133c-0.085 0.085-0.127 0.215-0.212 0.3-0.129 0.085-0.256 0.127-0.385 0.212l-27.263 25.217c-0.171 0.171-0.256 0.383-0.427 0.597-0.171 0.212-0.512 0.297-0.683 0.512-4.225 4.735-7.851 9.472-10.796 14.377-15.316 25.644-29.781 78.636-6.953 119.637 19.924 35.84 57.856 92.46 92.713 138.199 36.437 44.203 82.903 94.379 113.025 121.897 22.569 20.609 53.972 27.521 81.152 27.521 14.548 0 27.904-2.007 38.015-4.864 5.335-1.536 10.837-3.755 16.513-6.529 0.341-0.171 0.512-0.468 0.853-0.683 0.171-0.085 0.427-0.041 0.597-0.171l31.659-19.797c1.024-0.683 1.707-1.577 2.56-2.431l0.383 0.427c19.5-13.527 41.728-29.399 55.637-27.095 12.332 1.495 40.321 13.356 89.559 75.52l5.673 7.127c23.979 29.908 56.832 70.868 41.516 106.667z"></path>
</svg>
