<svg width="35" height="35" viewBox="0 0 35 35" fill="none" xmlns="http://www.w3.org/2000/svg">
<rect width="35" height="35" fill="#E4E4E4"/>
<g clip-path="url(#clip0_30_13827)">
<rect width="1440" height="3694" transform="translate(-1322 -699)" fill="white"/>
<path fill-rule="evenodd" clip-rule="evenodd" d="M-306.776 1962.67C-478.005 2045.41 -640.293 2147.18 -829.624 2129.43C-1027.09 2110.92 -1201.68 2010.32 -1337.73 1866.03C-1492.73 1701.62 -1635.6 1508.15 -1628.33 1282.3C-1620.46 1037.5 -1515.86 770.53 -1298.85 656.909C-1094.84 550.095 -873.028 748.559 -643.474 766.655C-383.964 787.113 -97.1712 607.303 107.756 767.796C333.091 944.273 455.414 1283.37 361.594 1553.8C272.609 1810.29 -62.3185 1844.54 -306.776 1962.67Z" fill="url(#paint0_linear_30_13827)" fill-opacity="0.2"/>
<path d="M27.3205 0L23.5024 15.6641L34.641 27.3205L18.9769 23.5024L7.32051 34.641L11.1386 18.9769L0 7.32051L15.6641 11.1386L27.3205 0Z" fill="#2B7FFF"/>
</g>
<defs>
<linearGradient id="paint0_linear_30_13827" x1="-471" y1="602" x2="-471" y2="1822.5" gradientUnits="userSpaceOnUse">
<stop offset="0.334676" stop-color="#2B7FFF"/>
<stop offset="0.634564" stop-color="#2B7FFF" stop-opacity="0"/>
<stop offset="0.894715" stop-color="#2B7FFF" stop-opacity="0"/>
</linearGradient>
<clipPath id="clip0_30_13827">
<rect width="1440" height="3694" fill="white" transform="translate(-1322 -699)"/>
</clipPath>
</defs>
</svg>
